<svg width="27" height="23" viewBox="0 0 27 23" fill="none" xmlns="http://www.w3.org/2000/svg">
<path d="M4.14697 20.3553V22.0404C4.14796 22.1628 4.20808 22.2772 4.30838 22.3474C4.40867 22.4176 4.53681 22.4349 4.65213 22.3937C7.42831 21.5584 10.3166 21.1555 13.2157 21.1996C16.7484 21.1996 19.9278 21.7153 22.2026 22.5455C22.3179 22.5867 22.446 22.5696 22.5463 22.4994C22.6466 22.4292 22.7068 22.3149 22.7077 22.1924V20.3553C20.3162 19.4544 16.946 18.9424 13.4275 18.9424C9.90893 18.9421 6.54261 19.4544 4.14733 20.3553L4.14697 20.3553Z" fill="white"/>
<path d="M17.5216 12.2938L13.6356 4.14404L13.4273 3.69531L13.2154 4.14404L8.95134 13.0956L2.12256 7.12556L3.99828 18.7834C6.54181 17.8967 9.85886 17.4162 13.4198 17.4162C16.9807 17.4162 20.2946 17.8968 22.8382 18.7834L24.7211 7.12556L17.9068 13.0956L17.5216 12.2938Z" fill="white"/>
<path d="M15.0386 1.61084C15.0386 2.50044 14.3173 3.22167 13.4277 3.22167C12.5382 3.22167 11.8169 2.50038 11.8169 1.61084C11.8169 0.721296 12.5382 0 13.4277 0C14.3173 0 15.0386 0.721296 15.0386 1.61084Z" fill="white"/>
<path d="M2.61427 5.15156C2.61501 4.80435 2.47799 4.4712 2.23305 4.22524C1.98811 3.97956 1.6552 3.84107 1.30825 3.84082C0.961291 3.84057 0.628147 3.97832 0.382689 4.22376C0.137503 4.46919 -0.000245697 4.80211 3.28994e-07 5.14906C0.000246796 5.49627 0.138733 5.82891 0.384418 6.07387C0.630343 6.31881 0.963506 6.45582 1.31074 6.45508C1.65646 6.45508 1.98787 6.31758 2.23232 6.07313C2.47677 5.82868 2.61427 5.49725 2.61427 5.15154L2.61427 5.15156Z" fill="white"/>
<path d="M26.8516 5.15103C26.8516 5.87277 26.2664 6.45806 25.5443 6.45806C24.8226 6.45806 24.2373 5.87281 24.2373 5.15103C24.2373 4.42904 24.8226 3.84375 25.5443 3.84375C26.2663 3.84375 26.8516 4.42899 26.8516 5.15103Z" fill="white"/>
</svg>
