<svg width="38" height="28" viewBox="0 0 38 28" fill="none" xmlns="http://www.w3.org/2000/svg">
<g filter="url(#filter0_d_847_5196)">
<path d="M18.9335 2.00021C17.5266 2.03449 16.3745 3.14071 16.3745 4.48987C16.3745 5.43691 16.9424 6.26748 17.7669 6.69027L16.7157 8.86934H14.7082C13.1609 8.86934 11.7664 9.51871 10.824 10.5521L8.82851 8.8233C9.09906 8.43219 9.25587 7.96593 9.25587 7.46591C9.25587 6.09535 8.06856 4.96808 6.63137 4.96808C5.19418 4.96808 4 6.09541 4 7.46591C4 8.83647 5.19418 9.95557 6.63137 9.95557C6.72344 9.95557 6.81551 9.95134 6.90537 9.94242L9.55571 21.3408V21.341C9.64532 21.7256 10.0028 21.9993 10.4156 22H27.5844C27.9975 21.9993 28.3549 21.7256 28.4443 21.341L31.0998 9.94266H31.1015C31.1892 9.95134 31.2788 9.9558 31.3686 9.9558C32.8058 9.9558 34 8.8367 34 7.46614C34 6.09559 32.8058 4.96831 31.3686 4.96831C29.9314 4.96831 28.7441 6.09565 28.7441 7.46614C28.7441 7.96619 28.9009 8.43242 29.1715 8.82354L27.1762 10.5521C26.2339 9.5187 24.8393 8.86933 23.2921 8.86933H21.2846L20.2331 6.69027C21.0576 6.26746 21.6255 5.4369 21.6255 4.48987C21.6255 3.11931 20.4365 2.00021 18.9993 2.00021C18.9769 2.00021 18.9562 1.99974 18.9338 2.00021L18.9335 2.00021ZM18.9989 3.68298C19.4876 3.68298 19.8589 4.03348 19.8589 4.48987C19.8589 4.94626 19.4876 5.30331 18.9989 5.30331C18.5103 5.30331 18.1408 4.94624 18.1408 4.48987C18.1408 4.0335 18.5103 3.68298 18.9989 3.68298ZM6.58637 6.65247C6.60138 6.65177 6.61591 6.65247 6.63117 6.65247C7.11983 6.65247 7.49109 7.00954 7.49109 7.46591C7.49109 7.74128 7.3557 7.97698 7.14127 8.12159C7.11764 8.13497 7.09475 8.14906 7.07234 8.16432C6.94483 8.23357 6.79441 8.27278 6.6312 8.27278C6.14254 8.27278 5.76441 7.92228 5.76441 7.46589C5.76441 7.02383 6.12013 6.67378 6.58639 6.65245L6.58637 6.65247ZM31.3214 6.65247C31.3364 6.65177 31.3527 6.65247 31.3679 6.65247C31.8566 6.65247 32.233 7.00954 32.233 7.46591C32.233 7.92228 31.8566 8.2728 31.3679 8.2728C31.2379 8.2728 31.1163 8.24697 31.0078 8.20213C30.9477 8.15636 30.8817 8.11833 30.8113 8.08875C30.6237 7.94225 30.508 7.72087 30.508 7.46594C30.508 7.02388 30.8554 6.67384 31.3214 6.6525L31.3214 6.65247ZM18.9983 8.16107L19.9047 10.0427C19.9104 10.0544 19.9161 10.066 19.922 10.0772L22.4896 15.4032C22.607 15.6469 22.8389 15.8228 23.1141 15.8765C23.3896 15.9305 23.6754 15.8559 23.8837 15.676L27.5593 12.4929C27.6041 12.4612 27.6457 12.4253 27.6834 12.3861L28.9844 11.2604L27.4749 17.7385H10.5236L9.01402 11.2604L14.1148 15.6761C14.3233 15.8561 14.6091 15.9306 14.8843 15.8766C15.1598 15.8228 15.3917 15.647 15.5089 15.4033L18.0575 10.1134C18.0779 10.0786 18.0959 10.0422 18.1109 10.0049L18.9983 8.16107ZM14.7075 10.5521H15.9051L14.4076 13.658L12.1278 11.6828C12.7415 10.9909 13.662 10.5522 14.7075 10.5522V10.5521ZM22.0935 10.5521H23.2912C24.3367 10.5521 25.2571 10.9909 25.8709 11.6827L23.591 13.658L22.0935 10.5521ZM10.9149 19.4209H27.0841L26.8739 20.3214H11.1256L10.9149 19.4209Z" fill="white"/>
</g>
<defs>
<filter id="filter0_d_847_5196" x="0" y="0" width="38" height="28" filterUnits="userSpaceOnUse" color-interpolation-filters="sRGB">
<feFlood flood-opacity="0" result="BackgroundImageFix"/>
<feColorMatrix in="SourceAlpha" type="matrix" values="0 0 0 0 0 0 0 0 0 0 0 0 0 0 0 0 0 0 127 0" result="hardAlpha"/>
<feOffset dy="2"/>
<feGaussianBlur stdDeviation="2"/>
<feComposite in2="hardAlpha" operator="out"/>
<feColorMatrix type="matrix" values="0 0 0 0 0 0 0 0 0 0 0 0 0 0 0 0 0 0 0.6 0"/>
<feBlend mode="normal" in2="BackgroundImageFix" result="effect1_dropShadow_847_5196"/>
<feBlend mode="normal" in="SourceGraphic" in2="effect1_dropShadow_847_5196" result="shape"/>
</filter>
</defs>
</svg>
