<svg width="24" height="30" viewBox="0 0 24 30" fill="none" xmlns="http://www.w3.org/2000/svg">
<path d="M15.0745 20.4395C14.9083 20.4395 14.7548 20.3756 14.6398 20.2605L11.769 17.3898C11.3279 16.9486 11.0913 16.3668 11.0913 15.7467C11.0913 15.1265 11.3343 14.5447 11.769 14.1035C12.2102 13.6624 12.792 13.4258 13.4122 13.4258C14.0323 13.4258 14.6141 13.6687 15.0553 14.1035L15.0745 14.1227L15.0937 14.1035C15.5348 13.6624 16.1167 13.4258 16.7368 13.4258C17.357 13.4258 17.9388 13.6687 18.3799 14.1035C18.8211 14.5447 19.0577 15.1265 19.0577 15.7467C19.0577 16.3668 18.8147 16.9486 18.3799 17.3898L15.5092 20.2605C15.3941 20.3756 15.2407 20.4395 15.0745 20.4395H15.0745ZM13.4121 14.6533C13.1308 14.6533 12.8495 14.762 12.6385 14.973C12.4339 15.1776 12.3189 15.4525 12.3189 15.7466C12.3189 16.0407 12.4339 16.3156 12.6385 16.5202L15.0745 18.9562L17.5105 16.5202C17.7151 16.3156 17.8302 16.0407 17.8302 15.7466C17.8302 15.4525 17.7151 15.1776 17.5105 14.973C17.3059 14.7684 17.031 14.6533 16.7369 14.6533C16.4428 14.6533 16.1678 14.7684 15.9633 14.973L15.5093 15.427C15.2664 15.6699 14.8764 15.6699 14.6398 15.427L14.1859 14.973C13.9749 14.7556 13.6935 14.6533 13.4123 14.6533H13.4121Z" fill="#C62251"/>
<path d="M5.91843 26.9033C5.32382 26.9033 4.74201 26.7179 4.24969 26.3599C3.63591 25.9123 3.22672 25.2538 3.10524 24.4993L0.0363149 5.21593C-0.213034 3.66229 0.848325 2.19815 2.40196 1.94878L14.3901 0.037099C15.1445 -0.084378 15.8926 0.0946418 16.5127 0.542192C17.1329 0.989743 17.5357 1.64829 17.6572 2.40272L18.0408 4.82589C18.0919 5.15836 17.8682 5.47802 17.5293 5.52917C17.1968 5.58032 16.8772 5.35655 16.826 5.01769L16.4424 2.59452C16.3721 2.16615 16.1419 1.78894 15.7966 1.53956C15.445 1.28382 15.0166 1.18152 14.5882 1.25185L2.5937 3.1699C1.71137 3.31056 1.11038 4.14173 1.25103 5.02406L4.32633 24.3075C4.39666 24.7358 4.62683 25.113 4.97209 25.3624C5.32374 25.6182 5.75212 25.7205 6.18049 25.6501L6.6728 25.5734C7.01166 25.5223 7.32493 25.746 7.37608 26.0849C7.42723 26.4174 7.20345 26.737 6.86459 26.7882L6.37228 26.8649C6.21884 26.8905 6.07178 26.9033 5.91834 26.9033L5.91843 26.9033Z" fill="#C62251"/>
<path d="M21.1486 29.5445H9.00729C7.43448 29.5445 6.15576 28.2658 6.15576 26.693V7.16696C6.15576 5.59415 7.43448 4.31543 9.00729 4.31543H21.1486C22.7214 4.31543 24.0001 5.59415 24.0001 7.16696V26.693C24.0001 28.2658 22.7214 29.5445 21.1486 29.5445ZM9.00729 5.54312C8.11222 5.54312 7.38971 6.272 7.38971 7.16071V26.6867C7.38971 27.5818 8.11859 28.3043 9.00729 28.3043H21.1486C22.0436 28.3043 22.7662 27.5754 22.7662 26.6867V7.16714C22.7662 6.27206 22.0373 5.54955 21.1486 5.54955C21.1486 5.54315 9.00729 5.54315 9.00729 5.54315V5.54312Z" fill="#C62251"/>
</svg>
