<svg width="25" height="21" viewBox="0 0 25 21" fill="none" xmlns="http://www.w3.org/2000/svg">
<path d="M4.0498 18.6994V20.2473C4.05071 20.3598 4.10594 20.4648 4.19808 20.5294C4.29021 20.5939 4.40793 20.6097 4.51387 20.5719C7.06419 19.8045 9.71749 19.4344 12.3808 19.4749C15.626 19.4749 18.5468 19.9487 20.6365 20.7114C20.7424 20.7492 20.8602 20.7335 20.9523 20.669C21.0444 20.6045 21.0997 20.4995 21.1006 20.387V18.6994C18.9036 17.8718 15.8075 17.4014 12.5754 17.4014C9.343 17.4011 6.25054 17.8718 4.05013 18.6994L4.0498 18.6994Z" fill="#FFC970"/>
<path d="M16.3367 11.2945L12.7668 3.80773L12.5755 3.39551L12.3808 3.80773L8.46366 12.031L2.19043 6.54669L3.91356 17.2561C6.25015 16.4416 9.29735 16.0002 12.5686 16.0002C15.8398 16.0002 18.8841 16.4416 21.2207 17.2561L22.9505 6.54669L16.6905 12.031L16.3367 11.2945Z" fill="#FFC970"/>
<path d="M14.0558 1.47979C14.0558 2.29702 13.3932 2.95957 12.576 2.95957C11.7588 2.95957 11.0962 2.29696 11.0962 1.47979C11.0962 0.662615 11.7588 0 12.576 0C13.3932 0 14.0558 0.662615 14.0558 1.47979Z" fill="#FFC970"/>
<path d="M2.64231 4.73242C2.64299 4.41346 2.51712 4.10742 2.29211 3.88146C2.06709 3.65577 1.76126 3.52855 1.44254 3.52832C1.12381 3.52809 0.817767 3.65464 0.592278 3.8801C0.367039 4.10557 0.240497 4.4114 0.240723 4.73013C0.240949 5.04909 0.368169 5.35467 0.593867 5.5797C0.819784 5.80471 1.12584 5.93058 1.44482 5.9299C1.76243 5.9299 2.06687 5.80358 2.29144 5.57902C2.516 5.35446 2.64231 5.04999 2.64231 4.73241L2.64231 4.73242Z" fill="#FFC970"/>
<path d="M24.9075 4.73315C24.9075 5.39617 24.3698 5.93385 23.7066 5.93385C23.0435 5.93385 22.5059 5.39621 22.5059 4.73315C22.5059 4.0699 23.0435 3.53223 23.7066 3.53223C24.3698 3.53223 24.9075 4.06986 24.9075 4.73315Z" fill="#FFC970"/>
</svg>
