<svg width="34" height="20" viewBox="0 0 34 20" fill="none" xmlns="http://www.w3.org/2000/svg">
<path d="M6.63666 12.4557C8.97016 12.4557 10.8683 10.5573 10.8683 8.22386C10.8683 5.89043 8.96989 3.99219 6.63666 3.99219C4.3037 3.99219 2.40479 5.89036 2.40479 8.22386C2.40479 10.5574 4.30323 12.4557 6.63666 12.4557ZM6.63666 5.77284C7.98825 5.77284 9.08768 6.87226 9.08768 8.22386C9.08768 9.57545 7.98825 10.6749 6.63666 10.6749C5.28506 10.6749 4.18564 9.57518 4.18564 8.22386C4.18564 6.87253 5.28506 5.77284 6.63666 5.77284Z" fill="#C62251"/>
<path d="M1.78093 18.683C1.78093 16.8647 3.26009 15.3858 5.07812 15.3858H8.19532C8.28861 15.3858 8.38111 15.3895 8.47255 15.3974C8.73054 15.4198 8.98668 15.3331 9.17402 15.1611C9.35637 14.9929 9.4573 14.7631 9.4573 14.5144C9.4573 14.0603 9.10972 13.6708 8.66544 13.6281C8.51049 13.6134 8.35369 13.6055 8.19505 13.6055H5.07784C2.27818 13.6047 0 15.8828 0 18.683V19.0491H1.78085L1.78093 18.683Z" fill="#C62251"/>
<path d="M9.77295 19.048H11.5538V16.8558C11.5538 14.8005 13.2258 13.1285 15.2813 13.1285H18.7187C20.7739 13.1285 22.4462 14.8005 22.4462 16.8558V19.048H24.2271V16.8558C24.2271 14.9966 23.2937 13.2742 21.7299 12.2491C20.8308 11.6594 19.7896 11.3477 18.7189 11.3477H15.2815C13.5802 11.3477 11.9994 12.1221 10.9437 13.4724C10.1779 14.452 9.77335 15.622 9.77335 16.8558L9.77362 19.048H9.77295Z" fill="#C62251"/>
<path d="M28.9224 13.6045H25.8052C25.718 13.6045 25.6316 13.6071 25.5454 13.6116C25.0653 13.638 24.689 14.0298 24.689 14.5039C24.689 14.7487 24.7907 14.9849 24.968 15.1522C25.1467 15.3203 25.3804 15.4046 25.6239 15.3907C25.684 15.387 25.7444 15.3854 25.8052 15.3854H28.9224C30.7407 15.3854 32.2196 16.8646 32.2196 18.6826V19.0486L34.0005 19.0489V18.6829C34.0005 15.8827 31.7223 13.6045 28.9224 13.6045L28.9224 13.6045Z" fill="#C62251"/>
<path d="M27.364 12.4557C29.6975 12.4557 31.5959 10.5573 31.5959 8.22386C31.5959 5.89043 29.6974 3.99219 27.364 3.99219C25.0302 3.99219 23.1318 5.89036 23.1318 8.22386C23.1318 10.5574 25.0307 12.4557 27.364 12.4557ZM27.364 5.77284C28.7156 5.77284 29.815 6.87226 29.815 8.22386C29.815 9.57545 28.7153 10.6749 27.364 10.6749C26.0127 10.6749 24.913 9.57518 24.913 8.22386C24.9127 6.87253 26.0127 5.77284 27.364 5.77284Z" fill="#C62251"/>
<path d="M17.0002 10.6468C19.9353 10.6468 22.3236 8.2588 22.3236 5.3234C22.3236 2.38801 19.9356 0 17.0002 0C14.0648 0 11.6768 2.38801 11.6768 5.3234C11.6768 8.25853 14.0648 10.6468 17.0002 10.6468ZM17.0002 1.78031C18.9534 1.78031 20.5427 3.36964 20.5427 5.32313C20.5427 7.27635 18.9534 8.86568 17.0002 8.86568C15.0467 8.86568 13.4573 7.27635 13.4573 5.32313C13.4573 3.36964 15.0467 1.78031 17.0002 1.78031Z" fill="#C62251"/>
</svg>
