<svg width="24" height="26" viewBox="0 0 24 26" fill="none" xmlns="http://www.w3.org/2000/svg">
<path d="M0.729318 13.0617C0.708419 13.2852 0.77847 13.5076 0.919977 13.6672C0.960618 13.7112 1.00597 13.7494 1.05496 13.7811L7.53622 17.9244L11.2417 25.1735C11.2691 25.2291 11.3025 25.2807 11.3411 25.3272C11.5053 25.5111 11.7429 25.5867 11.9689 25.5271C12.195 25.4675 12.3773 25.2811 12.4508 25.0344L17.6614 7.54426L17.6613 7.54417C17.6658 7.5158 17.6687 7.48696 17.6696 7.45812C17.6917 7.35895 17.6917 7.25525 17.6696 7.15599C17.6687 7.12706 17.6658 7.09841 17.6613 7.06985C17.6506 7.05793 17.64 7.046 17.6376 7.02484C17.6191 6.97788 17.5964 6.93306 17.5701 6.8911C17.5276 6.81152 17.4683 6.74516 17.3971 6.69756C17.3595 6.66826 17.3195 6.64303 17.2776 6.62205C17.2669 6.61012 17.2563 6.5982 17.2374 6.59552C17.2118 6.59044 17.1862 6.5873 17.1604 6.58628C17.0717 6.56151 16.979 6.56151 16.8903 6.58619C16.8646 6.5873 16.8388 6.59044 16.8134 6.59552L1.18167 12.4256L1.18159 12.4255C1.05949 12.4717 0.951944 12.5562 0.871644 12.6689C0.791437 12.7818 0.741955 12.9181 0.729236 13.0615L0.729318 13.0617ZM15.9678 8.49039L11.6549 22.9673L8.86366 17.499L12.2884 13.6672C12.4577 13.4778 12.5237 13.2018 12.4618 12.9432C12.3998 12.6846 12.2192 12.4826 11.9881 12.4133C11.757 12.3439 11.5103 12.4179 11.3411 12.6073L7.91636 16.4391L3.02913 13.3161L15.9678 8.49039Z" fill="black"/>
</svg>
