<svg width="27" height="20" viewBox="0 0 27 20" fill="none" xmlns="http://www.w3.org/2000/svg">
<path d="M2.16709 12.7894V15.0631C2.16709 15.5959 2.45133 16.0224 2.91327 16.2355C3.09096 16.3066 3.26864 16.3421 3.44607 16.3421C3.76575 16.3421 4.04999 16.2355 4.29877 16.0224L8.09997 12.7894H14.85C16.4486 12.7894 17.7276 11.5105 17.7276 9.91182V2.87758C17.7276 1.27895 16.4486 0 14.85 0H2.87758C1.27895 0 0 1.27895 0 2.87758V10.4802C0 11.7238 0.959279 12.7185 2.16712 12.7896L2.16709 12.7894ZM1.42091 2.87754C1.42091 2.0605 2.06026 1.42089 2.87756 1.42089H14.8855C15.7025 1.42089 16.3422 2.06024 16.3422 2.87754V9.91178C16.3422 10.7288 15.7028 11.3684 14.8855 11.3684H8.06442C7.74474 11.3684 7.4605 11.475 7.21172 11.6881L3.58796 14.8145V12.6828C3.58796 12.3274 3.44596 12.0077 3.19715 11.7592C2.9486 11.5106 2.62867 11.3684 2.30899 11.3684C1.81163 11.3684 1.42083 10.9776 1.42083 10.4802L1.42091 2.87754Z" fill="black"/>
<path d="M24.1223 3.55273H19.5395C19.1487 3.55273 18.829 3.87242 18.829 4.2632C18.829 4.654 19.1487 4.97367 19.5395 4.97367H24.1223C24.9393 4.97367 25.5789 5.61302 25.5789 6.43032V14.033C25.5789 14.2818 25.4724 14.4949 25.3301 14.6369C25.1524 14.8146 24.9393 14.8857 24.6908 14.8857C24.3354 14.8857 24.0157 15.0277 23.8026 15.2411C23.5538 15.4899 23.4118 15.8096 23.4118 16.1647V18.2964L19.788 15.17C19.5395 15.0278 19.2198 14.9212 18.9355 14.9212H12.1145C11.5817 14.9212 11.1197 14.637 10.8709 14.2107C10.6578 13.8911 10.2316 13.7488 9.91162 13.9619C9.59194 14.1751 9.4497 14.6013 9.66282 14.9212C10.1956 15.8094 11.1195 16.3422 12.1496 16.3422H18.8996L22.7011 19.6106C22.9499 19.8237 23.2339 19.9303 23.5538 19.9303C23.7315 19.9303 23.9092 19.8948 24.0866 19.8237C24.5485 19.6106 24.8328 19.1486 24.8328 18.6513V16.3776C25.4013 16.3422 25.934 16.1288 26.3249 15.7026C26.7511 15.2763 27 14.6724 27 14.0682V6.43067C27 4.83204 25.721 3.55309 24.1224 3.55309L24.1223 3.55273Z" fill="black"/>
</svg>
